<svg width="24" height="24" viewBox="0 0 24 24" fill="none" xmlns="http://www.w3.org/2000/svg">
<path d="M21.5625 16.9688C22.0803 16.9688 22.5 16.549 22.5 16.0312V12.5625C22.5 10.4948 20.8177 8.8125 18.75 8.8125H17.6233V5.50622C17.6233 2.47008 15.0999 0 11.9983 0C8.89664 0 6.37327 2.47008 6.37327 5.50622V8.8125H5.25C3.18225 8.8125 1.5 10.4948 1.5 12.5625V20.25C1.5 22.3177 3.18225 24 5.25 24H18.75C20.8177 24 22.5 22.3177 22.5 20.25C22.5 19.7322 22.0803 19.3125 21.5625 19.3125C21.0447 19.3125 20.625 19.7322 20.625 20.25C20.625 21.2839 19.7839 22.125 18.75 22.125H5.25C4.21613 22.125 3.375 21.2839 3.375 20.25V12.5625C3.375 11.5286 4.21613 10.6875 5.25 10.6875H18.75C19.7839 10.6875 20.625 11.5286 20.625 12.5625V16.0312C20.625 16.549 21.0447 16.9688 21.5625 16.9688ZM15.7483 8.8125H8.24827V5.50622C8.24827 3.50395 9.93052 1.875 11.9983 1.875C14.066 1.875 15.7483 3.50395 15.7483 5.50622V8.8125Z" fill="#ADADAD"/>
<path d="M12 17.2031C12.5178 17.2031 12.9375 16.7834 12.9375 16.2656C12.9375 15.7479 12.5178 15.3281 12 15.3281C11.4822 15.3281 11.0625 15.7479 11.0625 16.2656C11.0625 16.7834 11.4822 17.2031 12 17.2031Z" fill="black"/>
</svg>
